<svg width="21" height="21" fill="none" xmlns="http://www.w3.org/2000/svg"><path d="M12.698 19.532l-.075-6.508a.63.63 0 01.492-.526l6.524-.071c.25.032.448-.195.492-.527l-.03-3.633c.033-.249-.195-.447-.528-.491l-6.524.07a.63.63 0 01-.527-.49l-.076-6.51c.033-.248-.194-.447-.527-.49L8.277.382C8.027.35 7.83.577 7.785.91l.075 6.51a.63.63 0 01-.492.525l-6.524.071c-.25-.033-.448.195-.492.526l.03 3.634c-.032.248.195.447.528.491l6.524-.071a.63.63 0 01.527.491l.076 6.51c-.033.248.195.447.527.49l3.642-.027a.63.63 0 00.492-.527z" fill="#FDD08D"/></svg>